<mxfile host="app.diagrams.net" modified="2021-06-10T10:56:09.753Z" agent="5.0 (Windows NT 10.0; WOW64) AppleWebKit/537.36 (KHTML, like Gecko) coc_coc_browser/95.0.150 Chrome/89.0.4389.150 Safari/537.36" etag="UwZ0sUQgtU6mRYpeEdaS" version="14.1.3" type="github">
  <diagram id="4abeiDv1NOWrEsaSBZQl" name="Page-1">
    <mxGraphModel dx="1240" dy="1934" grid="1" gridSize="10" guides="1" tooltips="1" connect="1" arrows="1" fold="1" page="1" pageScale="1" pageWidth="1600" pageHeight="1200" math="0" shadow="0">
      <root>
        <mxCell id="0" />
        <mxCell id="1" parent="0" />
        <mxCell id="gk1ptdMLT29ZNZ7Cg3Ny-13" value="View" style="shape=ellipse;html=1;strokeWidth=3;fontStyle=1;whiteSpace=wrap;align=center;perimeter=ellipsePerimeter;" parent="1" vertex="1">
          <mxGeometry x="710" y="60" width="120" height="60" as="geometry" />
        </mxCell>
        <mxCell id="gk1ptdMLT29ZNZ7Cg3Ny-14" value="Order" style="shape=ellipse;html=1;strokeWidth=3;fontStyle=1;whiteSpace=wrap;align=center;perimeter=ellipsePerimeter;" parent="1" vertex="1">
          <mxGeometry x="500" y="140" width="120" height="60" as="geometry" />
        </mxCell>
        <mxCell id="gk1ptdMLT29ZNZ7Cg3Ny-17" value="Sign up" style="shape=ellipse;html=1;strokeWidth=3;fontStyle=1;whiteSpace=wrap;align=center;perimeter=ellipsePerimeter;" parent="1" vertex="1">
          <mxGeometry x="880" y="290" width="120" height="60" as="geometry" />
        </mxCell>
        <mxCell id="gk1ptdMLT29ZNZ7Cg3Ny-19" value="Sign in" style="shape=ellipse;html=1;strokeWidth=3;fontStyle=1;whiteSpace=wrap;align=center;perimeter=ellipsePerimeter;" parent="1" vertex="1">
          <mxGeometry x="430" width="120" height="60" as="geometry" />
        </mxCell>
        <mxCell id="gk1ptdMLT29ZNZ7Cg3Ny-22" value="Pay" style="shape=ellipse;html=1;strokeWidth=3;fontStyle=1;whiteSpace=wrap;align=center;perimeter=ellipsePerimeter;" parent="1" vertex="1">
          <mxGeometry x="710" y="180" width="120" height="60" as="geometry" />
        </mxCell>
        <mxCell id="gk1ptdMLT29ZNZ7Cg3Ny-24" value="Complaint settle" style="shape=ellipse;html=1;strokeWidth=3;fontStyle=1;whiteSpace=wrap;align=center;perimeter=ellipsePerimeter;" parent="1" vertex="1">
          <mxGeometry x="1090.5" y="640" width="120" height="60" as="geometry" />
        </mxCell>
        <mxCell id="gk1ptdMLT29ZNZ7Cg3Ny-26" value="View Order Histories" style="shape=ellipse;html=1;strokeWidth=3;fontStyle=1;whiteSpace=wrap;align=center;perimeter=ellipsePerimeter;" parent="1" vertex="1">
          <mxGeometry x="640" y="320" width="120" height="60" as="geometry" />
        </mxCell>
        <mxCell id="gk1ptdMLT29ZNZ7Cg3Ny-28" value="View shipment state" style="shape=ellipse;html=1;strokeWidth=3;fontStyle=1;whiteSpace=wrap;align=center;perimeter=ellipsePerimeter;" parent="1" vertex="1">
          <mxGeometry x="510" y="400" width="120" height="60" as="geometry" />
        </mxCell>
        <mxCell id="gk1ptdMLT29ZNZ7Cg3Ny-30" value="View stock statistics" style="shape=ellipse;html=1;strokeWidth=3;fontStyle=1;whiteSpace=wrap;align=center;perimeter=ellipsePerimeter;" parent="1" vertex="1">
          <mxGeometry x="479" y="620" width="141" height="60" as="geometry" />
        </mxCell>
        <mxCell id="gk1ptdMLT29ZNZ7Cg3Ny-34" value="Manage goods in stock" style="shape=ellipse;html=1;strokeWidth=3;fontStyle=1;whiteSpace=wrap;align=center;perimeter=ellipsePerimeter;" parent="1" vertex="1">
          <mxGeometry x="1080" y="430" width="120" height="60" as="geometry" />
        </mxCell>
        <mxCell id="gk1ptdMLT29ZNZ7Cg3Ny-38" value="Manage System" style="shape=ellipse;html=1;strokeWidth=3;fontStyle=1;whiteSpace=wrap;align=center;perimeter=ellipsePerimeter;" parent="1" vertex="1">
          <mxGeometry x="1110" y="780" width="120" height="60" as="geometry" />
        </mxCell>
        <mxCell id="gk1ptdMLT29ZNZ7Cg3Ny-40" value="Receive shipment" style="shape=ellipse;html=1;strokeWidth=3;fontStyle=1;whiteSpace=wrap;align=center;perimeter=ellipsePerimeter;" parent="1" vertex="1">
          <mxGeometry x="500" y="850" width="120" height="60" as="geometry" />
        </mxCell>
        <mxCell id="gk1ptdMLT29ZNZ7Cg3Ny-44" value="View System Statistics" style="shape=ellipse;html=1;strokeWidth=3;fontStyle=1;whiteSpace=wrap;align=center;perimeter=ellipsePerimeter;" parent="1" vertex="1">
          <mxGeometry x="1100" y="900" width="120" height="60" as="geometry" />
        </mxCell>
        <mxCell id="gk1ptdMLT29ZNZ7Cg3Ny-46" value="View Complaint" style="shape=ellipse;html=1;strokeWidth=3;fontStyle=1;whiteSpace=wrap;align=center;perimeter=ellipsePerimeter;" parent="1" vertex="1">
          <mxGeometry x="1080" y="550" width="120" height="60" as="geometry" />
        </mxCell>
        <mxCell id="gk1ptdMLT29ZNZ7Cg3Ny-47" value="Report Shipment State" style="shape=ellipse;html=1;strokeWidth=3;fontStyle=1;whiteSpace=wrap;align=center;perimeter=ellipsePerimeter;" parent="1" vertex="1">
          <mxGeometry x="520" y="970" width="120" height="60" as="geometry" />
        </mxCell>
        <mxCell id="Zv_lYtnXGRcHsklbE8j4-1" value="Customer" style="shape=umlActor;html=1;verticalLabelPosition=bottom;verticalAlign=top;align=center;" vertex="1" parent="1">
          <mxGeometry x="280" y="150" width="30" height="60" as="geometry" />
        </mxCell>
        <mxCell id="Zv_lYtnXGRcHsklbE8j4-2" value="Admin" style="shape=umlActor;html=1;verticalLabelPosition=bottom;verticalAlign=top;align=center;" vertex="1" parent="1">
          <mxGeometry x="190" y="360" width="30" height="60" as="geometry" />
        </mxCell>
        <mxCell id="Zv_lYtnXGRcHsklbE8j4-6" value="User" style="shape=umlActor;html=1;verticalLabelPosition=bottom;verticalAlign=top;align=center;" vertex="1" parent="1">
          <mxGeometry x="190" y="-20" width="30" height="60" as="geometry" />
        </mxCell>
        <mxCell id="Zv_lYtnXGRcHsklbE8j4-7" value="" style="edgeStyle=none;html=1;endArrow=none;verticalAlign=bottom;exitX=1;exitY=0.3333333333333333;exitDx=0;exitDy=0;exitPerimeter=0;entryX=0;entryY=0.5;entryDx=0;entryDy=0;" edge="1" parent="1" source="Zv_lYtnXGRcHsklbE8j4-1" target="gk1ptdMLT29ZNZ7Cg3Ny-14">
          <mxGeometry width="160" relative="1" as="geometry">
            <mxPoint x="570" y="280" as="sourcePoint" />
            <mxPoint x="730" y="280" as="targetPoint" />
          </mxGeometry>
        </mxCell>
        <mxCell id="Zv_lYtnXGRcHsklbE8j4-8" value="&amp;lt;&amp;lt;include&amp;gt;&amp;gt;" style="edgeStyle=none;html=1;endArrow=open;verticalAlign=bottom;dashed=1;labelBackgroundColor=none;entryX=0;entryY=0.5;entryDx=0;entryDy=0;exitX=1;exitY=0.5;exitDx=0;exitDy=0;" edge="1" parent="1" source="gk1ptdMLT29ZNZ7Cg3Ny-14" target="gk1ptdMLT29ZNZ7Cg3Ny-13">
          <mxGeometry width="160" relative="1" as="geometry">
            <mxPoint x="570" y="280" as="sourcePoint" />
            <mxPoint x="730" y="280" as="targetPoint" />
          </mxGeometry>
        </mxCell>
        <mxCell id="Zv_lYtnXGRcHsklbE8j4-9" value="&amp;lt;&amp;lt;include&amp;gt;&amp;gt;" style="edgeStyle=none;html=1;endArrow=open;verticalAlign=bottom;dashed=1;labelBackgroundColor=none;entryX=0;entryY=0.5;entryDx=0;entryDy=0;exitX=1;exitY=0.5;exitDx=0;exitDy=0;" edge="1" parent="1" source="gk1ptdMLT29ZNZ7Cg3Ny-14" target="gk1ptdMLT29ZNZ7Cg3Ny-22">
          <mxGeometry width="160" relative="1" as="geometry">
            <mxPoint x="570" y="280" as="sourcePoint" />
            <mxPoint x="730" y="280" as="targetPoint" />
          </mxGeometry>
        </mxCell>
        <mxCell id="Zv_lYtnXGRcHsklbE8j4-10" value="" style="edgeStyle=none;html=1;endArrow=none;verticalAlign=bottom;exitX=1;exitY=0.3333333333333333;exitDx=0;exitDy=0;exitPerimeter=0;entryX=0;entryY=0.5;entryDx=0;entryDy=0;" edge="1" parent="1" source="Zv_lYtnXGRcHsklbE8j4-1" target="gk1ptdMLT29ZNZ7Cg3Ny-17">
          <mxGeometry width="160" relative="1" as="geometry">
            <mxPoint x="570" y="280" as="sourcePoint" />
            <mxPoint x="730" y="280" as="targetPoint" />
          </mxGeometry>
        </mxCell>
        <mxCell id="Zv_lYtnXGRcHsklbE8j4-13" value="" style="edgeStyle=none;html=1;endArrow=none;verticalAlign=bottom;exitX=1;exitY=0.3333333333333333;exitDx=0;exitDy=0;exitPerimeter=0;entryX=0;entryY=0.5;entryDx=0;entryDy=0;" edge="1" parent="1" source="Zv_lYtnXGRcHsklbE8j4-6" target="gk1ptdMLT29ZNZ7Cg3Ny-19">
          <mxGeometry width="160" relative="1" as="geometry">
            <mxPoint x="570" y="280" as="sourcePoint" />
            <mxPoint x="730" y="280" as="targetPoint" />
          </mxGeometry>
        </mxCell>
        <mxCell id="Zv_lYtnXGRcHsklbE8j4-14" value="" style="edgeStyle=none;html=1;endArrow=block;endFill=0;endSize=12;verticalAlign=bottom;exitX=0.5;exitY=0;exitDx=0;exitDy=0;exitPerimeter=0;entryX=0;entryY=1;entryDx=0;entryDy=0;entryPerimeter=0;" edge="1" parent="1" source="Zv_lYtnXGRcHsklbE8j4-2" target="Zv_lYtnXGRcHsklbE8j4-6">
          <mxGeometry width="160" relative="1" as="geometry">
            <mxPoint x="570" y="280" as="sourcePoint" />
            <mxPoint x="730" y="280" as="targetPoint" />
          </mxGeometry>
        </mxCell>
        <mxCell id="Zv_lYtnXGRcHsklbE8j4-15" value="" style="edgeStyle=none;html=1;endArrow=block;endFill=0;endSize=12;verticalAlign=bottom;exitX=0.5;exitY=0;exitDx=0;exitDy=0;exitPerimeter=0;entryX=1;entryY=1;entryDx=0;entryDy=0;entryPerimeter=0;" edge="1" parent="1" source="Zv_lYtnXGRcHsklbE8j4-1" target="Zv_lYtnXGRcHsklbE8j4-6">
          <mxGeometry width="160" relative="1" as="geometry">
            <mxPoint x="570" y="280" as="sourcePoint" />
            <mxPoint x="730" y="280" as="targetPoint" />
          </mxGeometry>
        </mxCell>
        <mxCell id="Zv_lYtnXGRcHsklbE8j4-17" value="" style="edgeStyle=none;html=1;endArrow=none;verticalAlign=bottom;exitX=1;exitY=0.3333333333333333;exitDx=0;exitDy=0;exitPerimeter=0;entryX=0;entryY=0.5;entryDx=0;entryDy=0;" edge="1" parent="1" source="Zv_lYtnXGRcHsklbE8j4-1" target="gk1ptdMLT29ZNZ7Cg3Ny-28">
          <mxGeometry width="160" relative="1" as="geometry">
            <mxPoint x="570" y="420" as="sourcePoint" />
            <mxPoint x="730" y="420" as="targetPoint" />
          </mxGeometry>
        </mxCell>
        <mxCell id="Zv_lYtnXGRcHsklbE8j4-18" value="" style="edgeStyle=none;html=1;endArrow=none;verticalAlign=bottom;exitX=1;exitY=0.3333333333333333;exitDx=0;exitDy=0;exitPerimeter=0;entryX=0;entryY=0.5;entryDx=0;entryDy=0;" edge="1" parent="1" source="Zv_lYtnXGRcHsklbE8j4-1" target="gk1ptdMLT29ZNZ7Cg3Ny-26">
          <mxGeometry width="160" relative="1" as="geometry">
            <mxPoint x="570" y="420" as="sourcePoint" />
            <mxPoint x="730" y="420" as="targetPoint" />
          </mxGeometry>
        </mxCell>
      </root>
    </mxGraphModel>
  </diagram>
</mxfile>
